<?xml version="1.0" standalone="no"?>
<!DOCTYPE svg PUBLIC "-//W3C//DTD SVG 20010904//EN"
 "http://www.w3.org/TR/2001/REC-SVG-20010904/DTD/svg10.dtd">
<svg version="1.0" xmlns="http://www.w3.org/2000/svg"
 width="256.000000pt" height="256.000000pt" viewBox="0 0 256.000000 256.000000"
 preserveAspectRatio="xMidYMid meet">
<metadata>
Created by potrace 1.11, written by Peter Selinger 2001-2013
</metadata>
<g transform="translate(0.000000,256.000000) scale(0.100000,-0.100000)"
fill="#000000" stroke="none">
<path d="M409 2388 c-101 -98 -125 -152 -123 -278 2 -167 76 -255 323 -385 83
-43 122 -70 138 -94 31 -45 31 -72 1 -40 -34 37 -103 81 -198 129 -113 56
-183 110 -216 165 -20 36 -29 43 -40 35 -23 -20 -48 -113 -47 -182 1 -143 85
-240 306 -353 73 -37 147 -83 165 -101 38 -40 43 -65 6 -31 -14 13 -96 60
-182 103 -121 60 -168 90 -203 126 -38 40 -48 46 -58 34 -20 -24 -32 -126 -21
-190 22 -137 83 -201 288 -305 110 -56 145 -79 161 -105 29 -47 26 -49 -14
-13 -37 34 -235 138 -247 130 -5 -2 -8 -18 -8 -34 0 -44 -24 -93 -86 -175 -85
-114 -99 -151 -99 -269 0 -86 3 -107 24 -147 48 -95 157 -174 271 -199 75 -16
85 1 22 41 -27 18 -61 51 -76 74 -62 95 -60 181 8 319 25 51 46 105 46 120 0
37 11 29 65 -44 37 -50 57 -91 90 -188 9 -24 30 5 44 58 27 105 107 184 269
265 39 20 72 38 72 41 0 2 -25 54 -55 115 -145 289 -155 429 -45 599 21 33 48
69 60 81 36 36 20 84 -49 151 -47 46 -87 71 -217 134 -232 113 -281 151 -310
238 -15 44 -16 151 -3 196 9 29 -20 20 -62 -21z"/>
<path d="M2107 2393 c-2 -5 0 -35 6 -68 12 -73 1 -121 -44 -188 -40 -61 -83
-89 -251 -169 -168 -80 -257 -131 -315 -182 l-44 -39 7 39 c12 57 8 157 -6
184 -11 21 -10 22 6 16 11 -4 43 -10 72 -13 42 -5 56 -2 72 12 25 22 25 34 3
41 -10 3 -69 31 -132 62 -108 54 -118 57 -195 59 -45 1 -104 5 -133 9 -49 6
-54 5 -83 -24 -34 -35 -38 -50 -12 -58 109 -36 152 -82 152 -161 0 -49 -28
-96 -133 -230 -47 -60 -95 -128 -108 -152 -30 -59 -37 -166 -15 -263 19 -86
147 -358 169 -358 22 0 102 57 137 98 l33 37 -6 -66 c-5 -57 -23 -125 -52
-202 -10 -25 22 -22 43 3 16 20 17 9 16 -172 -1 -212 -5 -235 -62 -300 -18
-19 -58 -47 -91 -62 -33 -15 -63 -31 -66 -36 -21 -34 159 -15 241 25 67 33
136 108 208 225 78 127 115 171 180 214 64 42 83 46 61 12 -8 -13 -22 -59 -30
-102 -8 -43 -17 -89 -21 -100 -12 -44 15 -33 46 18 18 29 35 55 39 58 3 3 15
22 25 43 24 47 114 147 154 170 l31 17 -10 -32 c-12 -42 -4 -80 37 -196 40
-109 43 -167 13 -230 -23 -48 -83 -97 -130 -107 -17 -4 -29 -13 -29 -22 0 -23
120 -9 190 23 135 62 219 211 207 369 -6 81 -21 119 -72 194 -47 69 -85 149
-85 182 0 14 -3 28 -6 32 -3 3 -31 -7 -63 -23 -31 -15 -84 -40 -118 -53 -35
-14 -78 -36 -95 -49 l-33 -23 16 25 c10 15 75 56 169 105 245 128 293 189 294
371 1 133 -10 148 -64 94 -40 -40 -113 -81 -278 -156 -51 -24 -111 -57 -133
-75 l-41 -33 16 32 c21 40 57 63 231 147 113 54 149 77 191 121 69 71 97 142
96 244 0 75 -19 151 -39 157 -6 2 -25 -16 -42 -41 -37 -53 -85 -88 -201 -146
-152 -75 -185 -93 -205 -110 -36 -31 -48 -35 -36 -12 19 36 69 70 198 134 153
76 218 134 265 235 28 58 32 78 32 148 0 101 -32 176 -107 253 -51 52 -62 59
-70 45z m-457 -1409 c0 -14 -32 -121 -41 -138 -17 -29 4 -41 40 -23 53 27 38
-7 -37 -81 -61 -61 -184 -162 -197 -162 -3 0 -5 37 -5 83 0 130 42 200 175
291 49 35 65 42 65 30z"/>
<path d="M1033 737 c-96 -75 -146 -129 -169 -184 -8 -18 -21 -80 -29 -139 -16
-113 -29 -144 -76 -182 -40 -32 -28 -46 33 -38 127 17 229 88 288 198 33 61
34 68 40 208 4 110 10 153 23 178 17 30 17 32 0 31 -10 0 -59 -33 -110 -72z"/>
<path d="M1904 598 c-11 -13 -41 -52 -66 -88 -93 -134 -211 -231 -331 -274
-34 -12 -60 -26 -57 -32 3 -5 65 -8 145 -8 154 1 186 10 255 64 64 51 88 115
92 244 3 117 -3 133 -38 94z"/>
</g>
</svg>
